<svg width="259" height="90" viewBox="0 0 259 90" fill="none" xmlns="http://www.w3.org/2000/svg">
<path d="M240.984 36.3881C238.625 36.3881 236.289 36.855 234.11 37.7623C231.931 38.6695 229.951 39.9992 228.283 41.6756C226.615 43.3519 225.292 45.342 224.39 47.5322C223.487 49.7225 223.022 52.07 223.022 54.4407V76.8194H233.079V54.3665C233.079 53.3251 233.285 52.2941 233.687 51.3338C234.088 50.3736 234.675 49.5034 235.415 48.7742C236.155 48.0451 237.032 47.4716 237.995 47.0873C238.958 46.703 239.988 46.5157 241.024 46.5363C243.095 46.6186 245.053 47.5093 246.481 49.0192C247.91 50.5291 248.696 52.5392 248.674 54.6226V76.8598H258.73V54.2587C258.732 49.5244 256.864 44.983 253.536 41.6322C250.209 38.2814 245.694 36.3952 240.984 36.3881Z" fill="black"/>
<path d="M156.655 36.3881H166.712V76.8194H156.655V36.3881Z" fill="black"/>
<path d="M161.683 33.9965C165.053 33.9965 167.784 31.2511 167.784 27.8644C167.784 24.4778 165.053 21.7323 161.683 21.7323C158.314 21.7323 155.582 24.4778 155.582 27.8644C155.582 31.2511 158.314 33.9965 161.683 33.9965Z" fill="black"/>
<path d="M195.407 36.3881C191.429 36.3881 187.54 37.5737 184.233 39.795C180.925 42.0164 178.347 45.1736 176.825 48.8675C175.302 52.5615 174.904 56.6262 175.68 60.5476C176.456 64.4691 178.372 68.0711 181.185 70.8983C183.998 73.7256 187.581 75.6509 191.483 76.4309C195.385 77.211 199.429 76.8106 203.104 75.2805C206.779 73.7505 209.92 71.1594 212.13 67.8349C214.341 64.5105 215.52 60.602 215.52 56.6037C215.52 51.2422 213.401 46.1003 209.629 42.3091C205.857 38.5179 200.741 36.3881 195.407 36.3881ZM195.407 66.7115C193.418 66.7115 191.474 66.1187 189.82 65.0081C188.166 63.8974 186.877 62.3188 186.116 60.4718C185.355 58.6249 185.156 56.5925 185.544 54.6318C185.932 52.6711 186.889 50.87 188.296 49.4564C189.702 48.0428 191.494 47.0801 193.445 46.6901C195.396 46.3001 197.418 46.5003 199.255 47.2653C201.093 48.0304 202.664 49.3259 203.769 50.9881C204.874 52.6503 205.464 54.6046 205.464 56.6037C205.464 59.2845 204.404 61.8555 202.518 63.751C200.632 65.6466 198.074 66.7115 195.407 66.7115Z" fill="black"/>
<path d="M98.2464 36.5232V58.693C98.2654 60.7787 97.4751 62.7898 96.0431 64.2995C94.6112 65.8092 92.6503 66.6987 90.5766 66.7792C89.5423 66.7971 88.5148 66.6078 87.5541 66.2223C86.5934 65.8369 85.7187 65.2629 84.981 64.534C84.2433 63.8051 83.6574 62.9359 83.2576 61.977C82.8577 61.0181 82.6518 59.9888 82.652 58.9491V36.5232H72.6155V59.0838C72.6155 61.4289 73.075 63.7509 73.9679 65.9175C74.8607 68.084 76.1694 70.0525 77.8192 71.7107C81.1511 75.0596 85.6701 76.941 90.3822 76.941C95.1457 76.941 99.7142 75.039 103.083 71.6535C106.451 68.268 108.343 63.6762 108.343 58.8884V36.5232H98.2733C98.2733 36.5232 98.2464 36.5097 98.2464 36.5232Z" fill="black"/>
<path d="M125.882 64.4613C126.693 67.5542 129.234 69.286 133.197 69.286C137.159 69.286 138.56 67.8642 138.56 65.5125C138.56 63.0192 136.898 62.0421 131.366 60.6809C118.782 57.561 116.724 53.6459 116.724 48.1675C116.724 42.4599 120.747 36.4087 132.386 36.4087C144.024 36.4087 148.067 42.8373 148.402 48.0933H138.259C137.917 46.6648 136.965 43.9491 131.936 43.9491C128.396 43.9491 127.243 45.5259 127.243 47.2712C127.243 49.2052 128.443 50.1351 134.712 51.6041C147.598 54.6162 149.421 59.0569 149.421 64.751C149.421 71.1796 144.561 77.0286 132.781 77.0286C121.001 77.0286 116.214 71.3413 115.35 64.4613H125.882Z" fill="black"/>
<path d="M30.1698 13.1602H40.2264V56.7182H30.1698V13.1602Z" fill="black"/>
<path d="M20.1132 36.3881C16.1352 36.3881 12.2465 37.5737 8.93893 39.795C5.63132 42.0164 3.05336 45.1736 1.53104 48.8675C0.00871478 52.5615 -0.389594 56.6262 0.386479 60.5476C1.16255 64.4691 3.07815 68.0711 5.89104 70.8983C8.70392 73.7256 12.2878 75.6509 16.1893 76.4309C20.0909 77.211 24.135 76.8106 27.8102 75.2805C31.4855 73.7505 34.6267 71.1594 36.8368 67.8349C39.0469 64.5105 40.2265 60.602 40.2265 56.6037C40.2265 51.2422 38.1074 46.1003 34.3354 42.3091C30.5635 38.5179 25.4476 36.3881 20.1132 36.3881ZM20.1132 66.7115C18.1242 66.7115 16.1799 66.1187 14.5261 65.0081C12.8723 63.8974 11.5833 62.3188 10.8221 60.4718C10.061 58.6249 9.86182 56.5925 10.2499 54.6318C10.6379 52.6711 11.5957 50.87 13.0021 49.4564C14.4086 48.0428 16.2005 47.0801 18.1513 46.6901C20.1021 46.3001 22.1241 46.5003 23.9617 47.2653C25.7993 48.0304 27.37 49.3259 28.475 50.9881C29.58 52.6503 30.1699 54.6046 30.1699 56.6037C30.1699 59.2845 29.1103 61.8555 27.2243 63.751C25.3384 65.6466 22.7804 66.7115 20.1132 66.7115Z" fill="black"/>
<path fill-rule="evenodd" clip-rule="evenodd" d="M62.4448 21.4151C62.4448 12.8032 64.959 5.10108 68.9079 0C59.039 0 51.0406 12.4528 51.0473 27.8167V45L51.0408 45V68.5849C51.0408 77.1968 48.5267 84.8989 44.5778 90C54.4466 90 62.445 77.5472 62.4383 62.1833V45L62.4448 45V21.4151Z" fill="url(#paint0_radial_542_6646)"/>
<path fill-rule="evenodd" clip-rule="evenodd" d="M62.4448 21.4151C62.4448 12.8032 64.959 5.10108 68.9079 0C59.039 0 51.0406 12.4528 51.0473 27.8167V45L51.0408 45V68.5849C51.0408 77.1968 48.5267 84.8989 44.5778 90C54.4466 90 62.445 77.5472 62.4383 62.1833V45L62.4448 45V21.4151Z" fill="url(#paint1_linear_542_6646)"/>
<defs>
<radialGradient id="paint0_radial_542_6646" cx="0" cy="0" r="1" gradientUnits="userSpaceOnUse" gradientTransform="translate(68.005 4.04299) rotate(116.05) scale(55.0777 87.2485)">
<stop stop-color="#6DB9FF"/>
<stop offset="0.379628" stop-color="#1962F2"/>
<stop offset="0.703893" stop-color="#0F3EA3"/>
<stop offset="1" stop-color="#07246B"/>
</radialGradient>
<linearGradient id="paint1_linear_542_6646" x1="44.5778" y1="0" x2="93.6501" y2="12.1632" gradientUnits="userSpaceOnUse">
<stop stop-color="#032469" stop-opacity="0.62"/>
<stop offset="0.134789" stop-color="#032265" stop-opacity="0.16"/>
<stop offset="0.215402" stop-color="#032263" stop-opacity="0"/>
<stop offset="0.718692" stop-color="#041C4F" stop-opacity="0"/>
<stop offset="0.797654" stop-color="#041B4D" stop-opacity="0.15"/>
<stop offset="1" stop-color="#041947" stop-opacity="0.55"/>
</linearGradient>
</defs>
</svg>
