<svg width="244" height="85" viewBox="0 0 244 85" fill="none" xmlns="http://www.w3.org/2000/svg">
<path d="M227.246 34.3665C225.022 34.3665 222.82 34.8075 220.765 35.6644C218.71 36.5212 216.843 37.7771 215.27 39.3603C213.697 40.9435 212.45 42.823 211.598 44.8916C210.747 46.9601 210.309 49.1772 210.309 51.4162V72.5516H219.792V51.3462C219.792 50.3626 219.987 49.3888 220.365 48.4819C220.743 47.575 221.298 46.7532 221.995 46.0645C222.693 45.3759 223.52 44.8343 224.428 44.4713C225.336 44.1084 226.307 43.9315 227.284 43.951C229.237 44.0287 231.084 44.8699 232.431 46.2959C233.778 47.722 234.519 49.6204 234.498 51.588V72.5898H243.981V51.2443C243.983 46.7731 242.221 42.484 239.083 39.3193C235.946 36.1547 231.688 34.3733 227.246 34.3665V34.3665Z" fill="black"/>
<path d="M147.725 34.3665H157.208V72.5516H147.725V34.3665Z" fill="black"/>
<path d="M152.467 32.1074C155.644 32.1074 158.22 29.5145 158.22 26.3159C158.22 23.1174 155.644 20.5245 152.467 20.5245C149.289 20.5245 146.713 23.1174 146.713 26.3159C146.713 29.5145 149.289 32.1074 152.467 32.1074Z" fill="black"/>
<path d="M184.268 34.3665C180.516 34.3665 176.849 35.4863 173.73 37.5842C170.611 39.6821 168.18 42.664 166.745 46.1527C165.309 49.6414 164.934 53.4803 165.665 57.1838C166.397 60.8874 168.204 64.2894 170.856 66.9595C173.509 69.6297 176.888 71.4481 180.567 72.1848C184.247 72.9215 188.06 72.5434 191.526 71.0983C194.992 69.6532 197.954 67.2061 200.038 64.0663C202.122 60.9266 203.234 57.2352 203.234 53.4591C203.234 48.3954 201.236 43.5392 197.679 39.9586C194.122 36.3781 189.298 34.3665 184.268 34.3665V34.3665ZM184.268 63.0054C182.392 63.0054 180.559 62.4455 178.999 61.3965C177.439 60.3476 176.224 58.8566 175.506 57.1123C174.788 55.3679 174.601 53.4485 174.967 51.5967C175.332 49.7449 176.236 48.0439 177.562 46.7088C178.888 45.3738 180.578 44.4646 182.418 44.0962C184.257 43.7279 186.164 43.9169 187.897 44.6395C189.63 45.362 191.111 46.5856 192.153 48.1555C193.195 49.7253 193.751 51.571 193.751 53.4591C193.751 55.9909 192.752 58.419 190.973 60.2093C189.195 61.9996 186.783 63.0054 184.268 63.0054Z" fill="black"/>
<path d="M92.6457 34.4939V55.432C92.6636 57.4019 91.9183 59.3013 90.568 60.7271C89.2177 62.1529 87.3686 62.993 85.4131 63.0691C84.4377 63.086 83.4688 62.9072 82.5629 62.5431C81.6569 62.179 80.8321 61.637 80.1364 60.9486C79.4408 60.2602 78.8883 59.4392 78.5113 58.5336C78.1342 57.628 77.9401 56.6558 77.9402 55.6739V34.4939H68.4758V55.8012C68.4758 58.0159 68.9092 60.209 69.7511 62.2552C70.5931 64.3013 71.8272 66.1605 73.3829 67.7266C76.5249 70.8894 80.7863 72.6663 85.2297 72.6663V72.6663C89.7218 72.6663 94.0298 70.87 97.2062 67.6725C100.383 64.4751 102.167 60.1385 102.167 55.6166V34.4939H92.671C92.671 34.4939 92.6457 34.4812 92.6457 34.4939Z" fill="black"/>
<path d="M118.706 60.8798C119.471 63.801 121.867 65.4366 125.604 65.4366C129.34 65.4366 130.661 64.0938 130.661 61.8727C130.661 59.5179 129.094 58.5951 123.878 57.3095C112.011 54.3629 110.07 50.6653 110.07 45.4913C110.07 40.1008 113.863 34.3858 124.839 34.3858C135.814 34.3858 139.626 40.4572 139.943 45.4213H130.377C130.055 44.0721 129.157 41.5073 124.415 41.5073C121.077 41.5073 119.99 42.9965 119.99 44.6448C119.99 46.4713 121.121 47.3496 127.033 48.737C139.184 51.5818 140.903 55.7758 140.903 61.1535C140.903 67.2249 136.32 72.749 125.212 72.749C114.104 72.749 109.589 67.3777 108.774 60.8798H118.706Z" fill="black"/>
<path d="M28.4502 12.4293H37.9335V53.5674H28.4502V12.4293Z" fill="black"/>
<path d="M18.9667 34.3665C15.2154 34.3665 11.5484 35.4863 8.42936 37.5842C5.31031 39.6821 2.8793 42.664 1.44376 46.1527C0.008218 49.6414 -0.367386 53.4803 0.364448 57.1838C1.09628 60.8874 2.90268 64.2894 5.55522 66.9595C8.20776 69.6297 11.5873 71.4481 15.2665 72.1848C18.9456 72.9215 22.7592 72.5434 26.2249 71.0983C29.6906 69.6532 32.6528 67.2061 34.7369 64.0663C36.821 60.9266 37.9334 57.2352 37.9334 53.4591C37.9334 48.3954 35.9351 43.5392 32.3782 39.9586C28.8212 36.3781 23.997 34.3665 18.9667 34.3665ZM18.9667 63.0054C17.0911 63.0054 15.2576 62.4455 13.698 61.3965C12.1385 60.3476 10.923 58.8566 10.2052 57.1123C9.48745 55.3679 9.29965 53.4485 9.66557 51.5967C10.0315 49.7449 10.9347 48.0439 12.261 46.7088C13.5872 45.3738 15.277 44.4646 17.1166 44.0962C18.9562 43.7279 20.8629 43.9169 22.5958 44.6395C24.3287 45.362 25.8098 46.5856 26.8518 48.1555C27.8938 49.7253 28.45 51.571 28.45 53.4591C28.45 55.9909 27.4509 58.419 25.6724 60.2093C23.8939 61.9996 21.4818 63.0054 18.9667 63.0054Z" fill="black"/>
<path d="M42.0366 85C45.7604 80.1823 48.1312 72.9081 48.1312 64.7746V42.5H58.879V58.7287C58.8853 73.239 51.3429 85 42.0366 85Z" fill="#3478F6"/>
<path d="M64.9799 0C61.2561 4.81769 58.8853 12.0919 58.8853 20.2254V42.5H48.1375V26.2713C48.1311 11.761 55.6736 0 64.9799 0Z" fill="#3478F6"/>
</svg>
