<svg width="92" height="40" viewBox="0 0 92 40" fill="none" xmlns="http://www.w3.org/2000/svg">
<path d="M85.6831 12.938C84.8444 12.938 84.014 13.104 83.2392 13.4266C82.4644 13.7492 81.7604 14.2219 81.1673 14.818C80.5743 15.414 80.1039 16.1216 79.783 16.9004C79.4621 17.6791 79.2969 18.5138 79.2969 19.3567V27.3136H82.8726V19.3303C82.8725 18.96 82.9459 18.5934 83.0885 18.252C83.2312 17.9106 83.4401 17.6012 83.7032 17.3419C83.9662 17.0827 84.2781 16.8788 84.6205 16.7422C84.9629 16.6055 85.329 16.5389 85.6974 16.5463C86.4338 16.5755 87.1299 16.8922 87.6378 17.4291C88.1457 17.9659 88.4253 18.6806 88.4173 19.4214V27.3279H91.9929V19.292C91.9936 17.6087 91.3294 15.994 90.1462 14.8026C88.9631 13.6112 87.3578 12.9405 85.6831 12.938Z" fill="black"/>
<path d="M55.6997 12.938H59.2754V27.3136H55.6997V12.938Z" fill="black"/>
<path d="M57.4876 12.0875C58.6857 12.0875 59.6569 11.1113 59.6569 9.90716C59.6569 8.70302 58.6857 7.72687 57.4876 7.72687C56.2896 7.72687 55.3184 8.70302 55.3184 9.90716C55.3184 11.1113 56.2896 12.0875 57.4876 12.0875Z" fill="black"/>
<path d="M69.478 12.938C68.0636 12.938 66.681 13.3595 65.5049 14.1493C64.3289 14.9392 63.4123 16.0617 62.871 17.3751C62.3298 18.6885 62.1881 20.1337 62.4641 21.528C62.74 22.9223 63.4211 24.2031 64.4212 25.2083C65.4214 26.2135 66.6956 26.8981 68.0829 27.1754C69.4701 27.4528 70.908 27.3104 72.2147 26.7664C73.5215 26.2224 74.6384 25.3011 75.4242 24.1191C76.21 22.9371 76.6294 21.5474 76.6294 20.1258C76.6294 18.2195 75.8759 16.3912 74.5348 15.0432C73.1937 13.6953 71.3747 12.938 69.478 12.938ZM69.478 23.7197C68.7708 23.7197 68.0795 23.5089 67.4915 23.114C66.9035 22.7191 66.4452 22.1578 66.1745 21.5011C65.9039 20.8444 65.8331 20.1218 65.9711 19.4246C66.109 18.7275 66.4496 18.0871 66.9496 17.5845C67.4497 17.0819 68.0868 16.7396 68.7804 16.6009C69.4741 16.4623 70.193 16.5334 70.8464 16.8054C71.4998 17.0775 72.0582 17.5381 72.4511 18.1291C72.844 18.7201 73.0537 19.415 73.0537 20.1258C73.0537 21.0789 72.677 21.9931 72.0064 22.667C71.3358 23.341 70.4264 23.7197 69.478 23.7197Z" fill="black"/>
<path d="M34.9321 12.9859V20.8685C34.9388 21.6101 34.6578 22.3252 34.1487 22.862C33.6395 23.3987 32.9423 23.715 32.205 23.7436C31.8373 23.75 31.4719 23.6827 31.1304 23.5456C30.7888 23.4086 30.4778 23.2045 30.2155 22.9453C29.9532 22.6862 29.7449 22.3771 29.6027 22.0362C29.4605 21.6952 29.3873 21.3292 29.3874 20.9596V12.9859H25.8188V21.0075C25.8188 21.8413 25.9822 22.6669 26.2997 23.4372C26.6172 24.2075 27.0825 24.9075 27.6691 25.4971C28.8537 26.6878 30.4605 27.3567 32.1359 27.3567C33.8296 27.3567 35.454 26.6804 36.6516 25.4767C37.8492 24.273 38.5221 22.6404 38.5221 20.938V12.9859H34.9416C34.9416 12.9859 34.9321 12.9811 34.9321 12.9859Z" fill="black"/>
<path d="M44.7581 22.9195C45.0466 24.0192 45.95 24.6349 47.3588 24.6349C48.7677 24.6349 49.2659 24.1294 49.2659 23.2932C49.2659 22.4067 48.6747 22.0593 46.7081 21.5753C42.2337 20.466 41.5019 19.074 41.5019 17.1261C41.5019 15.0968 42.9321 12.9452 47.0704 12.9452C51.2087 12.9452 52.6461 15.2309 52.7653 17.0998H49.1586C49.037 16.5918 48.6985 15.6263 46.9107 15.6263C45.652 15.6263 45.242 16.1869 45.242 16.8075C45.242 17.4951 45.6687 17.8257 47.8976 18.348C52.4792 19.419 53.1276 20.9979 53.1276 23.0225C53.1276 25.3082 51.3994 27.3879 47.211 27.3879C43.0227 27.3879 41.3207 25.3657 41.0132 22.9195H44.7581Z" fill="black"/>
<path d="M10.7271 4.67929H14.3027V20.1666H10.7271V4.67929Z" fill="black"/>
<path d="M7.15137 12.938C5.73697 12.938 4.35432 13.3595 3.17828 14.1493C2.00225 14.9392 1.08564 16.0617 0.544369 17.3751C0.00309859 18.6885 -0.138522 20.1337 0.137415 21.528C0.413352 22.9223 1.09445 24.2031 2.09459 25.2083C3.09473 26.2135 4.36898 26.8981 5.75621 27.1754C7.14344 27.4528 8.58134 27.3104 9.88808 26.7664C11.1948 26.2224 12.3117 25.3011 13.0975 24.1191C13.8833 22.9371 14.3027 21.5474 14.3027 20.1258C14.3027 18.2195 13.5493 16.3912 12.2082 15.0432C10.867 13.6953 9.04803 12.938 7.15137 12.938ZM7.15137 23.7197C6.44417 23.7197 5.75285 23.5089 5.16483 23.114C4.57681 22.7191 4.11851 22.1578 3.84787 21.5011C3.57724 20.8444 3.50643 20.1218 3.64439 19.4246C3.78236 18.7275 4.12291 18.0871 4.62298 17.5845C5.12305 17.0819 5.76018 16.7396 6.45379 16.6009C7.14741 16.4623 7.86636 16.5334 8.51973 16.8054C9.1731 17.0775 9.73155 17.5381 10.1244 18.1291C10.5173 18.7201 10.7271 19.415 10.7271 20.1258C10.7271 21.0789 10.3503 21.9931 9.67976 22.667C9.00919 23.341 8.0997 23.7197 7.15137 23.7197Z" fill="black"/>
<path fill-rule="evenodd" clip-rule="evenodd" d="M22.2024 7.61426C22.2024 4.55226 23.0964 1.81372 24.5004 0C20.9915 0 18.1476 4.42767 18.15 9.89039V16H18.1476V24.3857C18.1476 27.4477 17.2537 30.1863 15.8496 32C19.3585 32 22.2024 27.5723 22.2 22.1096V16H22.2024V7.61426Z" fill="url(#paint0_radial_551_1366)"/>
<path fill-rule="evenodd" clip-rule="evenodd" d="M22.2024 7.61426C22.2024 4.55226 23.0964 1.81372 24.5004 0C20.9915 0 18.1476 4.42767 18.15 9.89039V16H18.1476V24.3857C18.1476 27.4477 17.2537 30.1863 15.8496 32C19.3585 32 22.2024 27.5723 22.2 22.1096V16H22.2024V7.61426Z" fill="url(#paint1_linear_551_1366)"/>
<defs>
<radialGradient id="paint0_radial_551_1366" cx="0" cy="0" r="1" gradientUnits="userSpaceOnUse" gradientTransform="translate(24.1794 1.43751) rotate(116.05) scale(19.5832 31.022)">
<stop stop-color="#6DB9FF"/>
<stop offset="0.379628" stop-color="#1962F2"/>
<stop offset="0.703893" stop-color="#0F3EA3"/>
<stop offset="1" stop-color="#07246B"/>
</radialGradient>
<linearGradient id="paint1_linear_551_1366" x1="15.8496" y1="0" x2="33.2977" y2="4.3248" gradientUnits="userSpaceOnUse">
<stop stop-color="#032469" stop-opacity="0.62"/>
<stop offset="0.134789" stop-color="#032265" stop-opacity="0.16"/>
<stop offset="0.215402" stop-color="#032263" stop-opacity="0"/>
<stop offset="0.718692" stop-color="#041C4F" stop-opacity="0"/>
<stop offset="0.797654" stop-color="#041B4D" stop-opacity="0.15"/>
<stop offset="1" stop-color="#041947" stop-opacity="0.55"/>
</linearGradient>
</defs>
</svg>
