<svg width="136" height="48" viewBox="0 0 136 48" fill="none" xmlns="http://www.w3.org/2000/svg">
<path d="M126.662 19.407C125.422 19.407 124.195 19.656 123.049 20.1399C121.904 20.6237 120.863 21.3329 119.986 22.227C119.11 23.121 118.414 24.1824 117.94 25.3505C117.466 26.5187 117.221 27.7706 117.221 29.035V40.9703H122.507V28.9955C122.507 28.44 122.616 27.8902 122.826 27.378C123.037 26.8659 123.346 26.4018 123.735 26.0129C124.124 25.624 124.585 25.3182 125.091 25.1132C125.597 24.9083 126.139 24.8084 126.683 24.8194C127.772 24.8633 128.801 25.3383 129.551 26.1436C130.302 26.9489 130.716 28.0209 130.704 29.132V40.9919H135.99V28.938C135.99 26.413 135.009 23.9909 133.26 22.2038C131.511 20.4167 129.138 19.4108 126.662 19.407V19.407Z" fill="black"/>
<path d="M82.3386 19.407H87.6244V40.9703H82.3386V19.407Z" fill="black"/>
<path d="M84.9814 18.1312C86.7524 18.1312 88.1881 16.667 88.1881 14.8608C88.1881 13.0546 86.7524 11.5903 84.9814 11.5903C83.2104 11.5903 81.7747 13.0546 81.7747 14.8608C81.7747 16.667 83.2104 18.1312 84.9814 18.1312Z" fill="black"/>
<path d="M102.707 19.407C100.616 19.407 98.5718 20.0393 96.8333 21.224C95.0949 22.4087 93.7399 24.0926 92.9397 26.0627C92.1396 28.0328 91.9302 30.2006 92.3381 32.2921C92.746 34.3835 93.7529 36.3046 95.2314 37.8125C96.7098 39.3203 98.5935 40.3472 100.644 40.7632C102.695 41.1792 104.82 40.9657 106.752 40.1496C108.684 39.3336 110.335 37.9517 111.497 36.1786C112.658 34.4056 113.278 32.3211 113.278 30.1887C113.278 27.3292 112.164 24.5868 110.182 22.5649C108.199 20.5429 105.51 19.407 102.707 19.407V19.407ZM102.707 35.5795C101.661 35.5795 100.639 35.2633 99.77 34.671C98.9007 34.0786 98.2232 33.2367 97.8232 32.2516C97.4231 31.2666 97.3184 30.1827 97.5224 29.137C97.7263 28.0912 98.2297 27.1307 98.969 26.3768C99.7082 25.6228 100.65 25.1094 101.675 24.9014C102.701 24.6934 103.764 24.8002 104.729 25.2082C105.695 25.6162 106.521 26.3071 107.102 27.1937C107.682 28.0802 107.992 29.1225 107.992 30.1887C107.992 31.6184 107.435 32.9896 106.444 34.0006C105.453 35.0115 104.108 35.5795 102.707 35.5795Z" fill="black"/>
<path d="M51.6385 19.4789V31.3028C51.6485 32.4152 51.233 33.4878 50.4804 34.2929C49.7278 35.0981 48.6971 35.5725 47.6072 35.6155C47.0635 35.625 46.5235 35.524 46.0185 35.3185C45.5136 35.1129 45.0538 34.8068 44.6661 34.418C44.2784 34.0293 43.9704 33.5657 43.7603 33.0543C43.5501 32.5429 43.4419 31.9939 43.442 31.4394V19.4789H38.1667V31.5113C38.1667 32.7619 38.4083 34.0004 38.8776 35.1559C39.3469 36.3113 40.0347 37.3612 40.9019 38.2456C42.6531 40.0317 45.0283 41.0351 47.505 41.0351V41.0351C50.0087 41.0351 52.4099 40.0207 54.1804 38.2151C55.9508 36.4095 56.9454 33.9605 56.9454 31.407V19.4789H51.6526C51.6526 19.4789 51.6385 19.4717 51.6385 19.4789Z" fill="black"/>
<path d="M66.1639 34.3792C66.5903 36.0288 67.9259 36.9524 70.0085 36.9524C72.0911 36.9524 72.8275 36.1941 72.8275 34.9399C72.8275 33.6101 71.9536 33.089 69.0464 32.363C62.4321 30.6991 61.3503 28.611 61.3503 25.6892C61.3503 22.6452 63.4646 19.4178 69.5821 19.4178C75.6995 19.4178 77.8244 22.8464 78.0006 25.6497H72.669C72.4893 24.8877 71.9889 23.4394 69.346 23.4394C67.4854 23.4394 66.8793 24.2804 66.8793 25.2112C66.8793 26.2426 67.51 26.7386 70.8048 27.5221C77.5777 29.1285 78.5362 31.4969 78.5362 34.5337C78.5362 37.9623 75.9814 41.0818 69.79 41.0818C63.5985 41.0818 61.0825 38.0486 60.6279 34.3792H66.1639Z" fill="black"/>
<path d="M15.8574 7.01892H21.1432V30.2498H15.8574V7.01892Z" fill="black"/>
<path d="M10.5716 19.407C8.48073 19.407 6.43682 20.0393 4.69833 21.224C2.95985 22.4087 1.60486 24.0926 0.804719 26.0627C0.00458052 28.0328 -0.204772 30.2006 0.203135 32.2921C0.611042 34.3835 1.61789 36.3046 3.09635 37.8125C4.57482 39.3203 6.45849 40.3472 8.50918 40.7632C10.5599 41.1792 12.6855 40.9657 14.6172 40.1496C16.5489 39.3336 18.1999 37.9517 19.3616 36.1786C20.5232 34.4056 21.1432 32.3211 21.1432 30.1887C21.1432 27.3292 20.0294 24.5868 18.0468 22.5649C16.0643 20.5429 13.3754 19.407 10.5716 19.407ZM10.5716 35.5795C9.52616 35.5795 8.50421 35.2633 7.63496 34.671C6.76572 34.0786 6.08823 33.2367 5.68816 32.2516C5.28809 31.2666 5.18341 30.1827 5.38736 29.137C5.59132 28.0912 6.09474 27.1307 6.83397 26.3768C7.57321 25.6228 8.51504 25.1094 9.54039 24.9014C10.5657 24.6934 11.6285 24.8002 12.5944 25.2082C13.5602 25.6162 14.3858 26.3071 14.9666 27.1937C15.5474 28.0802 15.8574 29.1225 15.8574 30.1887C15.8574 31.6184 15.3005 32.9896 14.3092 34.0006C13.3179 35.0115 11.9735 35.5795 10.5716 35.5795Z" fill="black"/>
<path d="M23.4302 48C25.5057 45.2794 26.8272 41.1716 26.8272 36.5786V24H32.8177V33.1644C32.8213 41.3585 28.6173 48 23.4302 48Z" fill="#3478F6"/>
<path d="M36.2184 0C34.1428 2.72058 32.8214 6.82839 32.8214 11.4214V24H26.8308V14.8356C26.8273 6.64151 31.0313 0 36.2184 0Z" fill="#3478F6"/>
</svg>
