<svg width="190" height="133" viewBox="0 0 190 133" fill="none" xmlns="http://www.w3.org/2000/svg">
<path d="M188.489 36.48C135.891 -12.1689 54.0874 -12.1511 1.51084 36.48C-0.466347 38.3088 -0.504941 41.4052 1.40694 43.3022L11.5719 53.387C13.3948 55.198 16.3279 55.2366 18.2219 53.4998C61.542 13.8136 128.452 13.8047 171.781 53.4998C173.675 55.2366 176.608 55.195 178.431 53.387L188.596 43.3022C190.505 41.4052 190.466 38.3088 188.489 36.48ZM94.9998 95C84.5053 95 75.9998 103.505 75.9998 114C75.9998 124.495 84.5053 133 94.9998 133C105.494 133 114 124.495 114 114C114 103.505 105.494 95 94.9998 95ZM155.167 70.1842C120.95 39.9238 69.0114 39.9564 34.8321 70.1842C32.7837 71.9952 32.7184 75.1391 34.6629 77.0569L44.8873 87.1477C46.6685 88.9052 49.5363 89.0239 51.4334 87.3852C76.356 65.8409 113.7 65.8884 138.563 87.3852C140.46 89.0239 143.328 88.9081 145.109 87.1477L155.334 77.0569C157.281 75.1391 157.213 71.9922 155.167 70.1842Z" fill="#3478F6"/>
</svg>
