<svg width="24" height="24" viewBox="0 0 24 24" fill="none" xmlns="http://www.w3.org/2000/svg">
<path fill-rule="evenodd" clip-rule="evenodd" d="M17.2857 15.3365L20.0412 19.0221L21.5216 21H16.4401L15.9722 20.3739L13.5244 17.0959L12.2109 15.3365L11.1035 13.8543C11.1035 13.8543 14.1572 11.8303 15.1687 10.8178L15.173 10.8136C15.3989 10.5887 15.6289 10.3597 15.767 10.0738C15.7833 10.0393 15.7996 10.0038 15.814 9.9674C15.9454 9.64851 15.9962 9.30215 15.9619 8.95895C15.9276 8.61575 15.8092 8.28631 15.6172 7.99975C15.4253 7.71319 15.1657 7.47836 14.8613 7.31603C14.557 7.15369 14.2174 7.06886 13.8725 7.06903H6.03835L4.91755 5.56472L3 3H13.9645C15.2325 2.99927 16.4699 3.3896 17.5079 4.11777C18.5459 4.84595 19.3342 5.87653 19.7651 7.06903C19.8874 7.40632 19.9795 7.7538 20.0403 8.10738C20.1617 8.80975 20.1617 9.52774 20.0403 10.2301C19.9795 10.5834 19.8874 10.9305 19.7651 11.2675C19.4712 12.0804 19.0089 12.8221 18.4084 13.4439C17.9235 13.9215 17.375 14.3299 16.7785 14.6577L17.2857 15.3365ZM4.91473 21H11.3615L4.91473 8.87535V21Z" fill="black" fill-opacity="0.12"/>
</svg>
